o track
v 147.086273 1.799992 -8.270508
v -260.000000 1.799991 -8.969032
v -260.000000 1.799995 -8.329136
v 147.123535 1.799995 -7.631590
v 147.081619 0.199991 -8.350365
v -260.000000 0.199992 -9.049011
v 147.081589 -0.200009 -8.350361
v -260.000000 -0.200009 -9.049007
v 148.106842 -0.200016 9.219753
v -260.000000 -0.000002 8.548145
v -260.000000 0.000002 -8.249142
v 147.128189 0.199995 -7.551723
v -260.000000 0.199988 7.748272
v 148.060242 0.199989 8.421108
v 148.106873 0.199984 9.219757
v 11.437725 0.199985 8.548149
v 148.102219 1.799985 9.139900
v -260.000000 1.799985 8.468170
v 148.064911 1.799989 8.500988
v -260.000000 1.799988 7.828274
v -260.000000 -0.000002 7.748280
v 148.060242 0.199988 8.421116
vt 0.537518 0.790960
vt 0.537511 0.221738
vt 0.541101 0.221704
vt 0.541101 0.791130
vt 0.394846 0.000053
vt 0.394846 0.503700
vt 0.385860 0.503670
vt 0.385860 0.000000
vt 0.971564 0.496322
vt 0.971564 0.999970
vt 0.969322 1.000000
vt 0.969322 0.496353
vt 0.098717 0.000000
vt 0.098717 0.574838
vt 0.000000 0.573871
vt 0.000189 0.004675
vt 0.412818 0.000048
vt 0.412818 0.470233
vt 0.403832 0.470206
vt 0.403832 0.000000
vt 0.197582 0.570331
vt 0.197410 0.000879
vt 0.287153 0.000000
vt 0.287153 0.574582
vt 0.970817 0.000000
vt 0.970817 0.474577
vt 0.968575 0.474617
vt 0.968575 0.000040
vt 0.403832 0.000048
vt 0.403832 0.474603
vt 0.394846 0.474577
vt 0.394846 0.000000
vt 0.533929 0.796346
vt 0.533922 0.221739
vt 0.537511 0.221704
vt 0.537511 0.796516
vt 0.385860 0.000053
vt 0.385860 0.508403
vt 0.376874 0.508372
vt 0.376874 0.000000
vn 0.0000 1.0000 -0.0000
vn 0.0023 0.0499 -0.9988
vn 0.0023 -0.0000 -1.0000
vn -0.0003 -1.0000 0.0057
vn -0.0023 0.0470 0.9989
vn -0.0003 1.0000 -0.0062
vn -0.0021 0.6074 0.7944
vn -0.0030 -0.1112 0.9938
vn 0.0022 0.0470 -0.9989
usemtl Material.001
s 1
f 1/1/1 2/2/1 3/3/1 4/4/1
f 5/5/2 6/6/2 2/7/2 1/8/2
f 7/9/3 8/10/3 6/11/3 5/12/3
f 9/13/4 10/14/4 8/15/4 7/16/4
f 4/17/5 3/18/5 11/19/5 12/20/5
f 12/21/6 11/22/6 13/23/6 14/24/6
f 15/25/7 16/26/7 10/27/7 9/28/7
f 17/29/8 18/30/8 16/31/8 15/32/8
f 19/33/1 20/34/1 18/35/1 17/36/1
f 14/37/9 21/38/9 20/39/9 19/40/9
l 13 20
l 19 22
